<?xml version="1.0" standalone="no"?>
<!DOCTYPE svg PUBLIC "-//W3C//DTD SVG 20010904//EN"
 "http://www.w3.org/TR/2001/REC-SVG-20010904/DTD/svg10.dtd">
<svg version="1.0" xmlns="http://www.w3.org/2000/svg"
 width="512pt" height="512pt" viewBox="0 0 256.000000 256.000000"
 preserveAspectRatio="xMidYMid meet">

<g transform="translate(0.000000,256.000000) scale(0.100000,-0.100000)"
fill="#ffff" stroke="none">
<path d="M1155 1825 c-84 -18 -109 -29 -187 -82 -234 -155 -313 -459 -186
-713 45 -89 152 -195 240 -238 141 -69 285 -78 436 -27 55 18 86 25 90 18 14
-22 78 -53 110 -53 138 0 219 164 131 264 l-28 32 21 45 c47 104 56 247 22
369 -78 276 -367 448 -649 385z m221 -339 c37 -17 61 -38 85 -72 32 -46 34
-54 34 -130 0 -71 -3 -85 -28 -122 -44 -67 -97 -96 -182 -100 -57 -3 -80 0
-111 16 -82 42 -127 118 -126 213 1 167 171 268 328 195z"/>
</g>
</svg>
